<mxfile host="app.diagrams.net" modified="2021-02-26T00:03:55.245Z" agent="5.0 (Windows NT 10.0; Win64; x64) AppleWebKit/537.36 (KHTML, like Gecko) Chrome/88.0.4324.190 Safari/537.36" etag="Nnw7WRmEPco2RSVtMEh_" version="14.4.3" type="github">
  <diagram name="Page-1" id="efa7a0a1-bf9b-a30e-e6df-94a7791c09e9">
    <mxGraphModel dx="1730" dy="967" grid="1" gridSize="10" guides="1" tooltips="1" connect="1" arrows="1" fold="1" page="1" pageScale="1" pageWidth="826" pageHeight="1169" background="#ffffff" math="0" shadow="0">
      <root>
        <mxCell id="0" />
        <mxCell id="1" parent="0" />
        <mxCell id="V5x3GfwoTtwcRLhxdQHw-114" value="Virus" style="swimlane;fontStyle=0;childLayout=stackLayout;horizontal=1;startSize=26;fillColor=none;horizontalStack=0;resizeParent=1;resizeParentMax=0;resizeLast=0;collapsible=1;marginBottom=0;" vertex="1" parent="1">
          <mxGeometry x="370" y="250" width="140" height="182" as="geometry">
            <mxRectangle x="370" y="250" width="60" height="26" as="alternateBounds" />
          </mxGeometry>
        </mxCell>
        <mxCell id="V5x3GfwoTtwcRLhxdQHw-115" value="ID_V (PK)" style="text;strokeColor=none;fillColor=none;align=left;verticalAlign=top;spacingLeft=4;spacingRight=4;overflow=hidden;rotatable=0;points=[[0,0.5],[1,0.5]];portConstraint=eastwest;" vertex="1" parent="V5x3GfwoTtwcRLhxdQHw-114">
          <mxGeometry y="26" width="140" height="26" as="geometry" />
        </mxCell>
        <mxCell id="V5x3GfwoTtwcRLhxdQHw-116" value="Environment" style="text;strokeColor=none;fillColor=none;align=left;verticalAlign=top;spacingLeft=4;spacingRight=4;overflow=hidden;rotatable=0;points=[[0,0.5],[1,0.5]];portConstraint=eastwest;" vertex="1" parent="V5x3GfwoTtwcRLhxdQHw-114">
          <mxGeometry y="52" width="140" height="26" as="geometry" />
        </mxCell>
        <mxCell id="V5x3GfwoTtwcRLhxdQHw-117" value="Type of algorthim" style="text;strokeColor=none;fillColor=none;align=left;verticalAlign=top;spacingLeft=4;spacingRight=4;overflow=hidden;rotatable=0;points=[[0,0.5],[1,0.5]];portConstraint=eastwest;" vertex="1" parent="V5x3GfwoTtwcRLhxdQHw-114">
          <mxGeometry y="78" width="140" height="26" as="geometry" />
        </mxCell>
        <mxCell id="V5x3GfwoTtwcRLhxdQHw-142" value="Polymorphism" style="swimlane;fontStyle=0;childLayout=stackLayout;horizontal=1;startSize=26;fillColor=none;horizontalStack=0;resizeParent=1;resizeParentMax=0;resizeLast=0;collapsible=1;marginBottom=0;align=left;verticalAlign=top;spacingRight=4;" vertex="1" parent="V5x3GfwoTtwcRLhxdQHw-114">
          <mxGeometry y="104" width="140" height="78" as="geometry" />
        </mxCell>
        <mxCell id="V5x3GfwoTtwcRLhxdQHw-143" value="Metamorphism" style="text;strokeColor=none;fillColor=none;align=left;verticalAlign=top;spacingLeft=4;spacingRight=4;overflow=hidden;rotatable=0;points=[[0,0.5],[1,0.5]];portConstraint=eastwest;" vertex="1" parent="V5x3GfwoTtwcRLhxdQHw-142">
          <mxGeometry y="26" width="140" height="26" as="geometry" />
        </mxCell>
        <mxCell id="V5x3GfwoTtwcRLhxdQHw-145" value="Danger level" style="text;strokeColor=none;fillColor=none;align=left;verticalAlign=top;spacingLeft=4;spacingRight=4;overflow=hidden;rotatable=0;points=[[0,0.5],[1,0.5]];portConstraint=eastwest;" vertex="1" parent="V5x3GfwoTtwcRLhxdQHw-142">
          <mxGeometry y="52" width="140" height="26" as="geometry" />
        </mxCell>
        <mxCell id="V5x3GfwoTtwcRLhxdQHw-118" value="Infection strategies" style="swimlane;fontStyle=0;childLayout=stackLayout;horizontal=1;startSize=26;fillColor=none;horizontalStack=0;resizeParent=1;resizeParentMax=0;resizeLast=0;collapsible=1;marginBottom=0;" vertex="1" parent="1">
          <mxGeometry x="120" y="110" width="140" height="104" as="geometry" />
        </mxCell>
        <mxCell id="V5x3GfwoTtwcRLhxdQHw-119" value="ID_S (PK)" style="text;strokeColor=none;fillColor=none;align=left;verticalAlign=top;spacingLeft=4;spacingRight=4;overflow=hidden;rotatable=0;points=[[0,0.5],[1,0.5]];portConstraint=eastwest;" vertex="1" parent="V5x3GfwoTtwcRLhxdQHw-118">
          <mxGeometry y="26" width="140" height="26" as="geometry" />
        </mxCell>
        <mxCell id="V5x3GfwoTtwcRLhxdQHw-120" value="Conditions" style="text;strokeColor=none;fillColor=none;align=left;verticalAlign=top;spacingLeft=4;spacingRight=4;overflow=hidden;rotatable=0;points=[[0,0.5],[1,0.5]];portConstraint=eastwest;" vertex="1" parent="V5x3GfwoTtwcRLhxdQHw-118">
          <mxGeometry y="52" width="140" height="26" as="geometry" />
        </mxCell>
        <mxCell id="V5x3GfwoTtwcRLhxdQHw-121" value="Object" style="text;strokeColor=none;fillColor=none;align=left;verticalAlign=top;spacingLeft=4;spacingRight=4;overflow=hidden;rotatable=0;points=[[0,0.5],[1,0.5]];portConstraint=eastwest;" vertex="1" parent="V5x3GfwoTtwcRLhxdQHw-118">
          <mxGeometry y="78" width="140" height="26" as="geometry" />
        </mxCell>
        <mxCell id="V5x3GfwoTtwcRLhxdQHw-122" value="Infection strategy" style="swimlane;fontStyle=0;childLayout=stackLayout;horizontal=1;startSize=26;fillColor=none;horizontalStack=0;resizeParent=1;resizeParentMax=0;resizeLast=0;collapsible=1;marginBottom=0;" vertex="1" parent="1">
          <mxGeometry x="120" y="240" width="140" height="78" as="geometry" />
        </mxCell>
        <mxCell id="V5x3GfwoTtwcRLhxdQHw-123" value="ID_S (FK)" style="text;strokeColor=none;fillColor=none;align=left;verticalAlign=top;spacingLeft=4;spacingRight=4;overflow=hidden;rotatable=0;points=[[0,0.5],[1,0.5]];portConstraint=eastwest;" vertex="1" parent="V5x3GfwoTtwcRLhxdQHw-122">
          <mxGeometry y="26" width="140" height="26" as="geometry" />
        </mxCell>
        <mxCell id="V5x3GfwoTtwcRLhxdQHw-124" value="ID_V (FK)" style="text;strokeColor=none;fillColor=none;align=left;verticalAlign=top;spacingLeft=4;spacingRight=4;overflow=hidden;rotatable=0;points=[[0,0.5],[1,0.5]];portConstraint=eastwest;" vertex="1" parent="V5x3GfwoTtwcRLhxdQHw-122">
          <mxGeometry y="52" width="140" height="26" as="geometry" />
        </mxCell>
        <mxCell id="V5x3GfwoTtwcRLhxdQHw-126" value="Infection ways" style="swimlane;fontStyle=0;childLayout=stackLayout;horizontal=1;startSize=26;fillColor=none;horizontalStack=0;resizeParent=1;resizeParentMax=0;resizeLast=0;collapsible=1;marginBottom=0;" vertex="1" parent="1">
          <mxGeometry x="620" y="110" width="140" height="104" as="geometry" />
        </mxCell>
        <mxCell id="V5x3GfwoTtwcRLhxdQHw-127" value="ID_I (PK)" style="text;strokeColor=none;fillColor=none;align=left;verticalAlign=top;spacingLeft=4;spacingRight=4;overflow=hidden;rotatable=0;points=[[0,0.5],[1,0.5]];portConstraint=eastwest;" vertex="1" parent="V5x3GfwoTtwcRLhxdQHw-126">
          <mxGeometry y="26" width="140" height="26" as="geometry" />
        </mxCell>
        <mxCell id="V5x3GfwoTtwcRLhxdQHw-128" value="Resident" style="text;strokeColor=none;fillColor=none;align=left;verticalAlign=top;spacingLeft=4;spacingRight=4;overflow=hidden;rotatable=0;points=[[0,0.5],[1,0.5]];portConstraint=eastwest;" vertex="1" parent="V5x3GfwoTtwcRLhxdQHw-126">
          <mxGeometry y="52" width="140" height="26" as="geometry" />
        </mxCell>
        <mxCell id="V5x3GfwoTtwcRLhxdQHw-129" value="Not resident" style="text;strokeColor=none;fillColor=none;align=left;verticalAlign=top;spacingLeft=4;spacingRight=4;overflow=hidden;rotatable=0;points=[[0,0.5],[1,0.5]];portConstraint=eastwest;" vertex="1" parent="V5x3GfwoTtwcRLhxdQHw-126">
          <mxGeometry y="78" width="140" height="26" as="geometry" />
        </mxCell>
        <mxCell id="V5x3GfwoTtwcRLhxdQHw-134" value="Infection way" style="swimlane;fontStyle=0;childLayout=stackLayout;horizontal=1;startSize=26;fillColor=none;horizontalStack=0;resizeParent=1;resizeParentMax=0;resizeLast=0;collapsible=1;marginBottom=0;" vertex="1" parent="1">
          <mxGeometry x="620" y="240" width="140" height="78" as="geometry" />
        </mxCell>
        <mxCell id="V5x3GfwoTtwcRLhxdQHw-135" value="ID_I (FK)" style="text;strokeColor=none;fillColor=none;align=left;verticalAlign=top;spacingLeft=4;spacingRight=4;overflow=hidden;rotatable=0;points=[[0,0.5],[1,0.5]];portConstraint=eastwest;" vertex="1" parent="V5x3GfwoTtwcRLhxdQHw-134">
          <mxGeometry y="26" width="140" height="26" as="geometry" />
        </mxCell>
        <mxCell id="V5x3GfwoTtwcRLhxdQHw-136" value="ID_V (FK)" style="text;strokeColor=none;fillColor=none;align=left;verticalAlign=top;spacingLeft=4;spacingRight=4;overflow=hidden;rotatable=0;points=[[0,0.5],[1,0.5]];portConstraint=eastwest;" vertex="1" parent="V5x3GfwoTtwcRLhxdQHw-134">
          <mxGeometry y="52" width="140" height="26" as="geometry" />
        </mxCell>
        <mxCell id="V5x3GfwoTtwcRLhxdQHw-147" value="" style="endArrow=none;html=1;edgeStyle=orthogonalEdgeStyle;strokeColor=#000000;exitX=0.545;exitY=1.032;exitDx=0;exitDy=0;exitPerimeter=0;entryX=0.002;entryY=1.058;entryDx=0;entryDy=0;entryPerimeter=0;" edge="1" parent="1" source="V5x3GfwoTtwcRLhxdQHw-124" target="V5x3GfwoTtwcRLhxdQHw-117">
          <mxGeometry relative="1" as="geometry">
            <mxPoint x="170" y="360" as="sourcePoint" />
            <mxPoint x="330" y="360" as="targetPoint" />
          </mxGeometry>
        </mxCell>
        <mxCell id="V5x3GfwoTtwcRLhxdQHw-148" value="many" style="edgeLabel;resizable=0;html=1;align=left;verticalAlign=bottom;" connectable="0" vertex="1" parent="V5x3GfwoTtwcRLhxdQHw-147">
          <mxGeometry x="-1" relative="1" as="geometry">
            <mxPoint y="21.17" as="offset" />
          </mxGeometry>
        </mxCell>
        <mxCell id="V5x3GfwoTtwcRLhxdQHw-149" value="one" style="edgeLabel;resizable=0;html=1;align=right;verticalAlign=bottom;" connectable="0" vertex="1" parent="V5x3GfwoTtwcRLhxdQHw-147">
          <mxGeometry x="1" relative="1" as="geometry" />
        </mxCell>
        <mxCell id="V5x3GfwoTtwcRLhxdQHw-151" value="" style="endArrow=none;html=1;edgeStyle=orthogonalEdgeStyle;strokeColor=#000000;exitX=0.75;exitY=1;exitDx=0;exitDy=0;entryX=1;entryY=0;entryDx=0;entryDy=0;" edge="1" parent="1" source="V5x3GfwoTtwcRLhxdQHw-134" target="V5x3GfwoTtwcRLhxdQHw-142">
          <mxGeometry relative="1" as="geometry">
            <mxPoint x="580" y="400.002" as="sourcePoint" />
            <mxPoint x="753.98" y="436.67799999999994" as="targetPoint" />
            <Array as="points">
              <mxPoint x="725" y="354" />
            </Array>
          </mxGeometry>
        </mxCell>
        <mxCell id="V5x3GfwoTtwcRLhxdQHw-152" value="many" style="edgeLabel;resizable=0;html=1;align=left;verticalAlign=bottom;" connectable="0" vertex="1" parent="V5x3GfwoTtwcRLhxdQHw-151">
          <mxGeometry x="-1" relative="1" as="geometry">
            <mxPoint y="21.17" as="offset" />
          </mxGeometry>
        </mxCell>
        <mxCell id="V5x3GfwoTtwcRLhxdQHw-153" value="one" style="edgeLabel;resizable=0;html=1;align=right;verticalAlign=bottom;" connectable="0" vertex="1" parent="V5x3GfwoTtwcRLhxdQHw-151">
          <mxGeometry x="1" relative="1" as="geometry">
            <mxPoint x="19.83" y="-4" as="offset" />
          </mxGeometry>
        </mxCell>
        <mxCell id="V5x3GfwoTtwcRLhxdQHw-154" value="" style="endArrow=none;html=1;edgeStyle=orthogonalEdgeStyle;strokeColor=#000000;exitX=0;exitY=0.5;exitDx=0;exitDy=0;" edge="1" parent="1" source="V5x3GfwoTtwcRLhxdQHw-123" target="V5x3GfwoTtwcRLhxdQHw-119">
          <mxGeometry relative="1" as="geometry">
            <mxPoint x="206.29999999999995" y="328.832" as="sourcePoint" />
            <mxPoint x="380.28" y="365.5079999999999" as="targetPoint" />
            <Array as="points">
              <mxPoint x="50" y="279" />
              <mxPoint x="50" y="156" />
            </Array>
          </mxGeometry>
        </mxCell>
        <mxCell id="V5x3GfwoTtwcRLhxdQHw-155" value="many" style="edgeLabel;resizable=0;html=1;align=left;verticalAlign=bottom;" connectable="0" vertex="1" parent="V5x3GfwoTtwcRLhxdQHw-154">
          <mxGeometry x="-1" relative="1" as="geometry">
            <mxPoint x="-40" y="-9" as="offset" />
          </mxGeometry>
        </mxCell>
        <mxCell id="V5x3GfwoTtwcRLhxdQHw-156" value="one" style="edgeLabel;resizable=0;html=1;align=right;verticalAlign=bottom;" connectable="0" vertex="1" parent="V5x3GfwoTtwcRLhxdQHw-154">
          <mxGeometry x="1" relative="1" as="geometry">
            <mxPoint x="-10.33" y="-6" as="offset" />
          </mxGeometry>
        </mxCell>
        <mxCell id="V5x3GfwoTtwcRLhxdQHw-157" value="" style="endArrow=none;html=1;edgeStyle=orthogonalEdgeStyle;strokeColor=#000000;exitX=1;exitY=0.5;exitDx=0;exitDy=0;entryX=0.993;entryY=0.288;entryDx=0;entryDy=0;entryPerimeter=0;" edge="1" parent="1" source="V5x3GfwoTtwcRLhxdQHw-135" target="V5x3GfwoTtwcRLhxdQHw-128">
          <mxGeometry relative="1" as="geometry">
            <mxPoint x="840" y="289" as="sourcePoint" />
            <mxPoint x="840" y="166" as="targetPoint" />
            <Array as="points">
              <mxPoint x="760" y="289" />
              <mxPoint x="810" y="289" />
              <mxPoint x="810" y="166" />
              <mxPoint x="759" y="166" />
            </Array>
          </mxGeometry>
        </mxCell>
        <mxCell id="V5x3GfwoTtwcRLhxdQHw-158" value="many" style="edgeLabel;resizable=0;html=1;align=left;verticalAlign=bottom;" connectable="0" vertex="1" parent="V5x3GfwoTtwcRLhxdQHw-157">
          <mxGeometry x="-1" relative="1" as="geometry">
            <mxPoint x="10" y="1" as="offset" />
          </mxGeometry>
        </mxCell>
        <mxCell id="V5x3GfwoTtwcRLhxdQHw-159" value="one" style="edgeLabel;resizable=0;html=1;align=right;verticalAlign=bottom;" connectable="0" vertex="1" parent="V5x3GfwoTtwcRLhxdQHw-157">
          <mxGeometry x="1" relative="1" as="geometry">
            <mxPoint x="30.98" y="-9.5" as="offset" />
          </mxGeometry>
        </mxCell>
        <mxCell id="V5x3GfwoTtwcRLhxdQHw-160" value="Disguise way" style="swimlane;fontStyle=0;childLayout=stackLayout;horizontal=1;startSize=26;fillColor=none;horizontalStack=0;resizeParent=1;resizeParentMax=0;resizeLast=0;collapsible=1;marginBottom=0;" vertex="1" parent="1">
          <mxGeometry x="120" y="400" width="140" height="78" as="geometry" />
        </mxCell>
        <mxCell id="V5x3GfwoTtwcRLhxdQHw-161" value="ID_D (FK)" style="text;strokeColor=none;fillColor=none;align=left;verticalAlign=top;spacingLeft=4;spacingRight=4;overflow=hidden;rotatable=0;points=[[0,0.5],[1,0.5]];portConstraint=eastwest;" vertex="1" parent="V5x3GfwoTtwcRLhxdQHw-160">
          <mxGeometry y="26" width="140" height="26" as="geometry" />
        </mxCell>
        <mxCell id="V5x3GfwoTtwcRLhxdQHw-162" value="ID_V (FK)" style="text;strokeColor=none;fillColor=none;align=left;verticalAlign=top;spacingLeft=4;spacingRight=4;overflow=hidden;rotatable=0;points=[[0,0.5],[1,0.5]];portConstraint=eastwest;" vertex="1" parent="V5x3GfwoTtwcRLhxdQHw-160">
          <mxGeometry y="52" width="140" height="26" as="geometry" />
        </mxCell>
        <mxCell id="V5x3GfwoTtwcRLhxdQHw-163" value="Disguise ways" style="swimlane;fontStyle=0;childLayout=stackLayout;horizontal=1;startSize=26;fillColor=none;horizontalStack=0;resizeParent=1;resizeParentMax=0;resizeLast=0;collapsible=1;marginBottom=0;" vertex="1" parent="1">
          <mxGeometry x="120" y="520" width="140" height="104" as="geometry" />
        </mxCell>
        <mxCell id="V5x3GfwoTtwcRLhxdQHw-164" value="ID_D (PK)" style="text;strokeColor=none;fillColor=none;align=left;verticalAlign=top;spacingLeft=4;spacingRight=4;overflow=hidden;rotatable=0;points=[[0,0.5],[1,0.5]];portConstraint=eastwest;" vertex="1" parent="V5x3GfwoTtwcRLhxdQHw-163">
          <mxGeometry y="26" width="140" height="26" as="geometry" />
        </mxCell>
        <mxCell id="V5x3GfwoTtwcRLhxdQHw-165" value="Viewer protection" style="text;strokeColor=none;fillColor=none;align=left;verticalAlign=top;spacingLeft=4;spacingRight=4;overflow=hidden;rotatable=0;points=[[0,0.5],[1,0.5]];portConstraint=eastwest;" vertex="1" parent="V5x3GfwoTtwcRLhxdQHw-163">
          <mxGeometry y="52" width="140" height="26" as="geometry" />
        </mxCell>
        <mxCell id="V5x3GfwoTtwcRLhxdQHw-166" value="Detection protection" style="text;strokeColor=none;fillColor=none;align=left;verticalAlign=top;spacingLeft=4;spacingRight=4;overflow=hidden;rotatable=0;points=[[0,0.5],[1,0.5]];portConstraint=eastwest;" vertex="1" parent="V5x3GfwoTtwcRLhxdQHw-163">
          <mxGeometry y="78" width="140" height="26" as="geometry" />
        </mxCell>
        <mxCell id="V5x3GfwoTtwcRLhxdQHw-167" value="" style="endArrow=none;html=1;edgeStyle=orthogonalEdgeStyle;strokeColor=#000000;exitX=0.545;exitY=1.032;exitDx=0;exitDy=0;exitPerimeter=0;entryX=-0.007;entryY=0.75;entryDx=0;entryDy=0;entryPerimeter=0;" edge="1" parent="1" target="V5x3GfwoTtwcRLhxdQHw-143">
          <mxGeometry relative="1" as="geometry">
            <mxPoint x="259.99999999999994" y="441.322" as="sourcePoint" />
            <mxPoint x="433.97999999999996" y="477.99799999999993" as="targetPoint" />
            <Array as="points">
              <mxPoint x="260" y="420" />
              <mxPoint x="369" y="420" />
            </Array>
          </mxGeometry>
        </mxCell>
        <mxCell id="V5x3GfwoTtwcRLhxdQHw-168" value="many" style="edgeLabel;resizable=0;html=1;align=left;verticalAlign=bottom;" connectable="0" vertex="1" parent="V5x3GfwoTtwcRLhxdQHw-167">
          <mxGeometry x="-1" relative="1" as="geometry">
            <mxPoint x="10" y="-1.3199999999999967" as="offset" />
          </mxGeometry>
        </mxCell>
        <mxCell id="V5x3GfwoTtwcRLhxdQHw-169" value="one" style="edgeLabel;resizable=0;html=1;align=right;verticalAlign=bottom;" connectable="0" vertex="1" parent="V5x3GfwoTtwcRLhxdQHw-167">
          <mxGeometry x="1" relative="1" as="geometry">
            <mxPoint x="-19.02" y="10.51" as="offset" />
          </mxGeometry>
        </mxCell>
        <mxCell id="V5x3GfwoTtwcRLhxdQHw-170" value="" style="endArrow=none;html=1;edgeStyle=orthogonalEdgeStyle;strokeColor=#000000;exitX=-0.021;exitY=-0.071;exitDx=0;exitDy=0;exitPerimeter=0;entryX=-0.017;entryY=-0.071;entryDx=0;entryDy=0;entryPerimeter=0;" edge="1" parent="1" source="V5x3GfwoTtwcRLhxdQHw-162" target="V5x3GfwoTtwcRLhxdQHw-165">
          <mxGeometry relative="1" as="geometry">
            <mxPoint x="10" y="521.8220000000001" as="sourcePoint" />
            <mxPoint x="119.02000000000021" y="480" as="targetPoint" />
            <Array as="points">
              <mxPoint x="10" y="450" />
              <mxPoint x="10" y="570" />
            </Array>
          </mxGeometry>
        </mxCell>
        <mxCell id="V5x3GfwoTtwcRLhxdQHw-171" value="many" style="edgeLabel;resizable=0;html=1;align=left;verticalAlign=bottom;" connectable="0" vertex="1" parent="V5x3GfwoTtwcRLhxdQHw-170">
          <mxGeometry x="-1" relative="1" as="geometry">
            <mxPoint x="-37.06" y="-1.3199999999999967" as="offset" />
          </mxGeometry>
        </mxCell>
        <mxCell id="V5x3GfwoTtwcRLhxdQHw-172" value="one" style="edgeLabel;resizable=0;html=1;align=right;verticalAlign=bottom;" connectable="0" vertex="1" parent="V5x3GfwoTtwcRLhxdQHw-170">
          <mxGeometry x="1" relative="1" as="geometry">
            <mxPoint x="-17.939999999999998" y="-10.15" as="offset" />
          </mxGeometry>
        </mxCell>
        <mxCell id="V5x3GfwoTtwcRLhxdQHw-173" value="Infection registration" style="swimlane;fontStyle=0;childLayout=stackLayout;horizontal=1;startSize=26;fillColor=none;horizontalStack=0;resizeParent=1;resizeParentMax=0;resizeLast=0;collapsible=1;marginBottom=0;align=center;" vertex="1" parent="1">
          <mxGeometry x="370" y="520" width="140" height="182" as="geometry" />
        </mxCell>
        <mxCell id="V5x3GfwoTtwcRLhxdQHw-174" value="ID_MAIN (PK)" style="text;strokeColor=none;fillColor=none;align=left;verticalAlign=top;spacingLeft=4;spacingRight=4;overflow=hidden;rotatable=0;points=[[0,0.5],[1,0.5]];portConstraint=eastwest;" vertex="1" parent="V5x3GfwoTtwcRLhxdQHw-173">
          <mxGeometry y="26" width="140" height="26" as="geometry" />
        </mxCell>
        <mxCell id="V5x3GfwoTtwcRLhxdQHw-175" value="ID_V (FK)" style="text;strokeColor=none;fillColor=none;align=left;verticalAlign=top;spacingLeft=4;spacingRight=4;overflow=hidden;rotatable=0;points=[[0,0.5],[1,0.5]];portConstraint=eastwest;" vertex="1" parent="V5x3GfwoTtwcRLhxdQHw-173">
          <mxGeometry y="52" width="140" height="26" as="geometry" />
        </mxCell>
        <mxCell id="V5x3GfwoTtwcRLhxdQHw-176" value="ID_SYS (FK)" style="text;strokeColor=none;fillColor=none;align=left;verticalAlign=top;spacingLeft=4;spacingRight=4;overflow=hidden;rotatable=0;points=[[0,0.5],[1,0.5]];portConstraint=eastwest;" vertex="1" parent="V5x3GfwoTtwcRLhxdQHw-173">
          <mxGeometry y="78" width="140" height="26" as="geometry" />
        </mxCell>
        <mxCell id="V5x3GfwoTtwcRLhxdQHw-177" value="Time" style="swimlane;fontStyle=0;childLayout=stackLayout;horizontal=1;startSize=26;fillColor=none;horizontalStack=0;resizeParent=1;resizeParentMax=0;resizeLast=0;collapsible=1;marginBottom=0;align=left;" vertex="1" parent="V5x3GfwoTtwcRLhxdQHw-173">
          <mxGeometry y="104" width="140" height="78" as="geometry" />
        </mxCell>
        <mxCell id="V5x3GfwoTtwcRLhxdQHw-178" value="Damage" style="text;strokeColor=none;fillColor=none;align=left;verticalAlign=top;spacingLeft=4;spacingRight=4;overflow=hidden;rotatable=0;points=[[0,0.5],[1,0.5]];portConstraint=eastwest;" vertex="1" parent="V5x3GfwoTtwcRLhxdQHw-177">
          <mxGeometry y="26" width="140" height="26" as="geometry" />
        </mxCell>
        <mxCell id="V5x3GfwoTtwcRLhxdQHw-179" value="User" style="text;strokeColor=none;fillColor=none;align=left;verticalAlign=top;spacingLeft=4;spacingRight=4;overflow=hidden;rotatable=0;points=[[0,0.5],[1,0.5]];portConstraint=eastwest;" vertex="1" parent="V5x3GfwoTtwcRLhxdQHw-177">
          <mxGeometry y="52" width="140" height="26" as="geometry" />
        </mxCell>
        <mxCell id="V5x3GfwoTtwcRLhxdQHw-181" value="" style="endArrow=none;html=1;edgeStyle=orthogonalEdgeStyle;strokeColor=#000000;entryX=1;entryY=0.5;entryDx=0;entryDy=0;exitX=1.017;exitY=0.096;exitDx=0;exitDy=0;exitPerimeter=0;" edge="1" parent="1" source="V5x3GfwoTtwcRLhxdQHw-173" target="V5x3GfwoTtwcRLhxdQHw-145">
          <mxGeometry relative="1" as="geometry">
            <mxPoint x="460" y="510" as="sourcePoint" />
            <mxPoint x="441" y="430" as="targetPoint" />
            <Array as="points">
              <mxPoint x="540" y="538" />
              <mxPoint x="540" y="419" />
            </Array>
          </mxGeometry>
        </mxCell>
        <mxCell id="V5x3GfwoTtwcRLhxdQHw-182" value="many" style="edgeLabel;resizable=0;html=1;align=left;verticalAlign=bottom;" connectable="0" vertex="1" parent="V5x3GfwoTtwcRLhxdQHw-181">
          <mxGeometry x="-1" relative="1" as="geometry">
            <mxPoint x="7.619999999999997" y="22.530000000000005" as="offset" />
          </mxGeometry>
        </mxCell>
        <mxCell id="V5x3GfwoTtwcRLhxdQHw-183" value="one" style="edgeLabel;resizable=0;html=1;align=right;verticalAlign=bottom;" connectable="0" vertex="1" parent="V5x3GfwoTtwcRLhxdQHw-181">
          <mxGeometry x="1" relative="1" as="geometry">
            <mxPoint x="29.020000000000003" y="0.9999999999999982" as="offset" />
          </mxGeometry>
        </mxCell>
        <mxCell id="V5x3GfwoTtwcRLhxdQHw-185" value="System" style="swimlane;fontStyle=0;childLayout=stackLayout;horizontal=1;startSize=26;fillColor=none;horizontalStack=0;resizeParent=1;resizeParentMax=0;resizeLast=0;collapsible=1;marginBottom=0;align=center;" vertex="1" parent="1">
          <mxGeometry x="120" y="680" width="140" height="104" as="geometry" />
        </mxCell>
        <mxCell id="V5x3GfwoTtwcRLhxdQHw-186" value="ID_SYS (PK)" style="text;strokeColor=none;fillColor=none;align=left;verticalAlign=top;spacingLeft=4;spacingRight=4;overflow=hidden;rotatable=0;points=[[0,0.5],[1,0.5]];portConstraint=eastwest;" vertex="1" parent="V5x3GfwoTtwcRLhxdQHw-185">
          <mxGeometry y="26" width="140" height="26" as="geometry" />
        </mxCell>
        <mxCell id="V5x3GfwoTtwcRLhxdQHw-187" value="OS type" style="text;strokeColor=none;fillColor=none;align=left;verticalAlign=top;spacingLeft=4;spacingRight=4;overflow=hidden;rotatable=0;points=[[0,0.5],[1,0.5]];portConstraint=eastwest;" vertex="1" parent="V5x3GfwoTtwcRLhxdQHw-185">
          <mxGeometry y="52" width="140" height="26" as="geometry" />
        </mxCell>
        <mxCell id="V5x3GfwoTtwcRLhxdQHw-188" value="Update version" style="text;strokeColor=none;fillColor=none;align=left;verticalAlign=top;spacingLeft=4;spacingRight=4;overflow=hidden;rotatable=0;points=[[0,0.5],[1,0.5]];portConstraint=eastwest;" vertex="1" parent="V5x3GfwoTtwcRLhxdQHw-185">
          <mxGeometry y="78" width="140" height="26" as="geometry" />
        </mxCell>
        <mxCell id="V5x3GfwoTtwcRLhxdQHw-189" value="" style="endArrow=none;html=1;edgeStyle=orthogonalEdgeStyle;strokeColor=#000000;entryX=1;entryY=0.5;entryDx=0;entryDy=0;exitX=-0.017;exitY=0.156;exitDx=0;exitDy=0;exitPerimeter=0;" edge="1" parent="1" source="V5x3GfwoTtwcRLhxdQHw-177">
          <mxGeometry relative="1" as="geometry">
            <mxPoint x="262.3800000000001" y="838.472" as="sourcePoint" />
            <mxPoint x="260" y="719.9999999999999" as="targetPoint" />
            <Array as="points">
              <mxPoint x="340" y="636" />
              <mxPoint x="340" y="720" />
            </Array>
          </mxGeometry>
        </mxCell>
        <mxCell id="V5x3GfwoTtwcRLhxdQHw-190" value="many" style="edgeLabel;resizable=0;html=1;align=left;verticalAlign=bottom;" connectable="0" vertex="1" parent="V5x3GfwoTtwcRLhxdQHw-189">
          <mxGeometry x="-1" relative="1" as="geometry">
            <mxPoint x="-37.620000000000005" y="-6.169999999999995" as="offset" />
          </mxGeometry>
        </mxCell>
        <mxCell id="V5x3GfwoTtwcRLhxdQHw-191" value="one" style="edgeLabel;resizable=0;html=1;align=right;verticalAlign=bottom;" connectable="0" vertex="1" parent="V5x3GfwoTtwcRLhxdQHw-189">
          <mxGeometry x="1" relative="1" as="geometry">
            <mxPoint x="29.020000000000003" y="0.9999999999999982" as="offset" />
          </mxGeometry>
        </mxCell>
        <mxCell id="V5x3GfwoTtwcRLhxdQHw-195" value="Architecture" style="swimlane;fontStyle=0;childLayout=stackLayout;horizontal=1;startSize=26;fillColor=none;horizontalStack=0;resizeParent=1;resizeParentMax=0;resizeLast=0;collapsible=1;marginBottom=0;align=center;" vertex="1" parent="1">
          <mxGeometry x="120" y="800" width="140" height="104" as="geometry" />
        </mxCell>
        <mxCell id="V5x3GfwoTtwcRLhxdQHw-196" value="x86" style="text;strokeColor=none;fillColor=none;align=left;verticalAlign=top;spacingLeft=4;spacingRight=4;overflow=hidden;rotatable=0;points=[[0,0.5],[1,0.5]];portConstraint=eastwest;" vertex="1" parent="V5x3GfwoTtwcRLhxdQHw-195">
          <mxGeometry y="26" width="140" height="26" as="geometry" />
        </mxCell>
        <mxCell id="V5x3GfwoTtwcRLhxdQHw-197" value="x64" style="text;strokeColor=none;fillColor=none;align=left;verticalAlign=top;spacingLeft=4;spacingRight=4;overflow=hidden;rotatable=0;points=[[0,0.5],[1,0.5]];portConstraint=eastwest;" vertex="1" parent="V5x3GfwoTtwcRLhxdQHw-195">
          <mxGeometry y="52" width="140" height="26" as="geometry" />
        </mxCell>
        <mxCell id="V5x3GfwoTtwcRLhxdQHw-198" value="ARM" style="text;strokeColor=none;fillColor=none;align=left;verticalAlign=top;spacingLeft=4;spacingRight=4;overflow=hidden;rotatable=0;points=[[0,0.5],[1,0.5]];portConstraint=eastwest;" vertex="1" parent="V5x3GfwoTtwcRLhxdQHw-195">
          <mxGeometry y="78" width="140" height="26" as="geometry" />
        </mxCell>
        <mxCell id="V5x3GfwoTtwcRLhxdQHw-199" value="Hardware" style="swimlane;fontStyle=0;childLayout=stackLayout;horizontal=1;startSize=26;fillColor=none;horizontalStack=0;resizeParent=1;resizeParentMax=0;resizeLast=0;collapsible=1;marginBottom=0;align=center;" vertex="1" parent="1">
          <mxGeometry x="120" y="930" width="140" height="104" as="geometry" />
        </mxCell>
        <mxCell id="V5x3GfwoTtwcRLhxdQHw-200" value="CPU" style="text;strokeColor=none;fillColor=none;align=left;verticalAlign=top;spacingLeft=4;spacingRight=4;overflow=hidden;rotatable=0;points=[[0,0.5],[1,0.5]];portConstraint=eastwest;" vertex="1" parent="V5x3GfwoTtwcRLhxdQHw-199">
          <mxGeometry y="26" width="140" height="26" as="geometry" />
        </mxCell>
        <mxCell id="V5x3GfwoTtwcRLhxdQHw-201" value="GPU" style="text;strokeColor=none;fillColor=none;align=left;verticalAlign=top;spacingLeft=4;spacingRight=4;overflow=hidden;rotatable=0;points=[[0,0.5],[1,0.5]];portConstraint=eastwest;" vertex="1" parent="V5x3GfwoTtwcRLhxdQHw-199">
          <mxGeometry y="52" width="140" height="26" as="geometry" />
        </mxCell>
        <mxCell id="V5x3GfwoTtwcRLhxdQHw-202" value="RAM" style="text;strokeColor=none;fillColor=none;align=left;verticalAlign=top;spacingLeft=4;spacingRight=4;overflow=hidden;rotatable=0;points=[[0,0.5],[1,0.5]];portConstraint=eastwest;" vertex="1" parent="V5x3GfwoTtwcRLhxdQHw-199">
          <mxGeometry y="78" width="140" height="26" as="geometry" />
        </mxCell>
        <mxCell id="V5x3GfwoTtwcRLhxdQHw-203" value="" style="endArrow=none;html=1;edgeStyle=orthogonalEdgeStyle;strokeColor=#000000;entryX=0;entryY=0.5;entryDx=0;entryDy=0;exitX=-0.017;exitY=0.156;exitDx=0;exitDy=0;exitPerimeter=0;" edge="1" parent="1" target="V5x3GfwoTtwcRLhxdQHw-196">
          <mxGeometry relative="1" as="geometry">
            <mxPoint x="120.00000000000011" y="739.9979999999999" as="sourcePoint" />
            <mxPoint x="12.379999999999995" y="823.83" as="targetPoint" />
            <Array as="points">
              <mxPoint x="92" y="740" />
              <mxPoint x="92" y="839" />
            </Array>
          </mxGeometry>
        </mxCell>
        <mxCell id="V5x3GfwoTtwcRLhxdQHw-204" value="many" style="edgeLabel;resizable=0;html=1;align=left;verticalAlign=bottom;" connectable="0" vertex="1" parent="V5x3GfwoTtwcRLhxdQHw-203">
          <mxGeometry x="-1" relative="1" as="geometry">
            <mxPoint x="-37.620000000000005" y="-6.169999999999995" as="offset" />
          </mxGeometry>
        </mxCell>
        <mxCell id="V5x3GfwoTtwcRLhxdQHw-205" value="one" style="edgeLabel;resizable=0;html=1;align=right;verticalAlign=bottom;" connectable="0" vertex="1" parent="V5x3GfwoTtwcRLhxdQHw-203">
          <mxGeometry x="1" relative="1" as="geometry">
            <mxPoint x="-20" y="21" as="offset" />
          </mxGeometry>
        </mxCell>
        <mxCell id="V5x3GfwoTtwcRLhxdQHw-210" value="ROM" style="swimlane;fontStyle=0;childLayout=stackLayout;horizontal=1;startSize=26;fillColor=none;horizontalStack=0;resizeParent=1;resizeParentMax=0;resizeLast=0;collapsible=1;marginBottom=0;align=left;" vertex="1" parent="1">
          <mxGeometry x="120" y="1034" width="140" height="104" as="geometry" />
        </mxCell>
        <mxCell id="V5x3GfwoTtwcRLhxdQHw-211" value="Network" style="text;strokeColor=none;fillColor=none;align=left;verticalAlign=top;spacingLeft=4;spacingRight=4;overflow=hidden;rotatable=0;points=[[0,0.5],[1,0.5]];portConstraint=eastwest;" vertex="1" parent="V5x3GfwoTtwcRLhxdQHw-210">
          <mxGeometry y="26" width="140" height="26" as="geometry" />
        </mxCell>
        <mxCell id="V5x3GfwoTtwcRLhxdQHw-212" value="Motherboard" style="text;strokeColor=none;fillColor=none;align=left;verticalAlign=top;spacingLeft=4;spacingRight=4;overflow=hidden;rotatable=0;points=[[0,0.5],[1,0.5]];portConstraint=eastwest;" vertex="1" parent="V5x3GfwoTtwcRLhxdQHw-210">
          <mxGeometry y="52" width="140" height="26" as="geometry" />
        </mxCell>
        <mxCell id="V5x3GfwoTtwcRLhxdQHw-213" value="UEFFI/BIOS version" style="text;strokeColor=none;fillColor=none;align=left;verticalAlign=top;spacingLeft=4;spacingRight=4;overflow=hidden;rotatable=0;points=[[0,0.5],[1,0.5]];portConstraint=eastwest;" vertex="1" parent="V5x3GfwoTtwcRLhxdQHw-210">
          <mxGeometry y="78" width="140" height="26" as="geometry" />
        </mxCell>
        <mxCell id="V5x3GfwoTtwcRLhxdQHw-214" value="" style="endArrow=none;html=1;edgeStyle=orthogonalEdgeStyle;strokeColor=#000000;entryX=1;entryY=0.5;entryDx=0;entryDy=0;exitX=1.026;exitY=0.186;exitDx=0;exitDy=0;exitPerimeter=0;" edge="1" parent="1" source="V5x3GfwoTtwcRLhxdQHw-188" target="V5x3GfwoTtwcRLhxdQHw-201">
          <mxGeometry relative="1" as="geometry">
            <mxPoint x="358" y="759.998" as="sourcePoint" />
            <mxPoint x="358" y="859" as="targetPoint" />
            <Array as="points">
              <mxPoint x="264" y="760" />
              <mxPoint x="330" y="760" />
              <mxPoint x="330" y="995" />
            </Array>
          </mxGeometry>
        </mxCell>
        <mxCell id="V5x3GfwoTtwcRLhxdQHw-215" value="one" style="edgeLabel;resizable=0;html=1;align=left;verticalAlign=bottom;" connectable="0" vertex="1" parent="V5x3GfwoTtwcRLhxdQHw-214">
          <mxGeometry x="-1" relative="1" as="geometry">
            <mxPoint x="6.359999999999992" y="-6.169999999999995" as="offset" />
          </mxGeometry>
        </mxCell>
        <mxCell id="V5x3GfwoTtwcRLhxdQHw-216" value="one" style="edgeLabel;resizable=0;html=1;align=right;verticalAlign=bottom;" connectable="0" vertex="1" parent="V5x3GfwoTtwcRLhxdQHw-214">
          <mxGeometry x="1" relative="1" as="geometry">
            <mxPoint x="29.909999999999997" y="21" as="offset" />
          </mxGeometry>
        </mxCell>
        <mxCell id="V5x3GfwoTtwcRLhxdQHw-217" value="Protection" style="swimlane;fontStyle=0;childLayout=stackLayout;horizontal=1;startSize=26;fillColor=none;horizontalStack=0;resizeParent=1;resizeParentMax=0;resizeLast=0;collapsible=1;marginBottom=0;align=center;" vertex="1" parent="1">
          <mxGeometry x="580" y="680" width="140" height="104" as="geometry" />
        </mxCell>
        <mxCell id="V5x3GfwoTtwcRLhxdQHw-218" value="ID_P (PK)" style="text;strokeColor=none;fillColor=none;align=left;verticalAlign=top;spacingLeft=4;spacingRight=4;overflow=hidden;rotatable=0;points=[[0,0.5],[1,0.5]];portConstraint=eastwest;" vertex="1" parent="V5x3GfwoTtwcRLhxdQHw-217">
          <mxGeometry y="26" width="140" height="26" as="geometry" />
        </mxCell>
        <mxCell id="V5x3GfwoTtwcRLhxdQHw-219" value="Program name" style="text;strokeColor=none;fillColor=none;align=left;verticalAlign=top;spacingLeft=4;spacingRight=4;overflow=hidden;rotatable=0;points=[[0,0.5],[1,0.5]];portConstraint=eastwest;" vertex="1" parent="V5x3GfwoTtwcRLhxdQHw-217">
          <mxGeometry y="52" width="140" height="26" as="geometry" />
        </mxCell>
        <mxCell id="V5x3GfwoTtwcRLhxdQHw-220" value="Program version" style="text;strokeColor=none;fillColor=none;align=left;verticalAlign=top;spacingLeft=4;spacingRight=4;overflow=hidden;rotatable=0;points=[[0,0.5],[1,0.5]];portConstraint=eastwest;" vertex="1" parent="V5x3GfwoTtwcRLhxdQHw-217">
          <mxGeometry y="78" width="140" height="26" as="geometry" />
        </mxCell>
        <mxCell id="V5x3GfwoTtwcRLhxdQHw-221" value="Setup" style="swimlane;fontStyle=0;childLayout=stackLayout;horizontal=1;startSize=26;fillColor=none;horizontalStack=0;resizeParent=1;resizeParentMax=0;resizeLast=0;collapsible=1;marginBottom=0;align=center;" vertex="1" parent="1">
          <mxGeometry x="380" y="800" width="140" height="78" as="geometry" />
        </mxCell>
        <mxCell id="V5x3GfwoTtwcRLhxdQHw-222" value="ID_SYS (FK)" style="text;strokeColor=none;fillColor=none;align=left;verticalAlign=top;spacingLeft=4;spacingRight=4;overflow=hidden;rotatable=0;points=[[0,0.5],[1,0.5]];portConstraint=eastwest;" vertex="1" parent="V5x3GfwoTtwcRLhxdQHw-221">
          <mxGeometry y="26" width="140" height="26" as="geometry" />
        </mxCell>
        <mxCell id="V5x3GfwoTtwcRLhxdQHw-223" value="ID_P (FK)" style="text;strokeColor=none;fillColor=none;align=left;verticalAlign=top;spacingLeft=4;spacingRight=4;overflow=hidden;rotatable=0;points=[[0,0.5],[1,0.5]];portConstraint=eastwest;" vertex="1" parent="V5x3GfwoTtwcRLhxdQHw-221">
          <mxGeometry y="52" width="140" height="26" as="geometry" />
        </mxCell>
        <mxCell id="V5x3GfwoTtwcRLhxdQHw-225" value="" style="endArrow=none;html=1;edgeStyle=orthogonalEdgeStyle;strokeColor=#000000;entryX=1;entryY=0.5;entryDx=0;entryDy=0;exitX=0.412;exitY=-0.024;exitDx=0;exitDy=0;exitPerimeter=0;" edge="1" parent="1" source="V5x3GfwoTtwcRLhxdQHw-221" target="V5x3GfwoTtwcRLhxdQHw-187">
          <mxGeometry relative="1" as="geometry">
            <mxPoint x="377.6200000000001" y="646.1679999999999" as="sourcePoint" />
            <mxPoint x="270" y="730" as="targetPoint" />
            <Array as="points">
              <mxPoint x="438" y="740" />
              <mxPoint x="260" y="740" />
            </Array>
          </mxGeometry>
        </mxCell>
        <mxCell id="V5x3GfwoTtwcRLhxdQHw-226" value="many" style="edgeLabel;resizable=0;html=1;align=left;verticalAlign=bottom;" connectable="0" vertex="1" parent="V5x3GfwoTtwcRLhxdQHw-225">
          <mxGeometry x="-1" relative="1" as="geometry">
            <mxPoint x="12.319999999999993" y="-6.169999999999995" as="offset" />
          </mxGeometry>
        </mxCell>
        <mxCell id="V5x3GfwoTtwcRLhxdQHw-227" value="one" style="edgeLabel;resizable=0;html=1;align=right;verticalAlign=bottom;" connectable="0" vertex="1" parent="V5x3GfwoTtwcRLhxdQHw-225">
          <mxGeometry x="1" relative="1" as="geometry">
            <mxPoint x="50" y="-5.040000000000001" as="offset" />
          </mxGeometry>
        </mxCell>
        <mxCell id="V5x3GfwoTtwcRLhxdQHw-228" value="" style="endArrow=none;html=1;edgeStyle=orthogonalEdgeStyle;strokeColor=#000000;exitX=1;exitY=0.5;exitDx=0;exitDy=0;" edge="1" parent="1" source="V5x3GfwoTtwcRLhxdQHw-222">
          <mxGeometry relative="1" as="geometry">
            <mxPoint x="597.6200000000001" y="869.9979999999999" as="sourcePoint" />
            <mxPoint x="580" y="738" as="targetPoint" />
            <Array as="points">
              <mxPoint x="520" y="830" />
              <mxPoint x="570" y="830" />
              <mxPoint x="570" y="738" />
            </Array>
          </mxGeometry>
        </mxCell>
        <mxCell id="V5x3GfwoTtwcRLhxdQHw-229" value="many" style="edgeLabel;resizable=0;html=1;align=left;verticalAlign=bottom;" connectable="0" vertex="1" parent="V5x3GfwoTtwcRLhxdQHw-228">
          <mxGeometry x="-1" relative="1" as="geometry">
            <mxPoint x="9.999999999999993" y="-18.999999999999993" as="offset" />
          </mxGeometry>
        </mxCell>
        <mxCell id="V5x3GfwoTtwcRLhxdQHw-230" value="one" style="edgeLabel;resizable=0;html=1;align=right;verticalAlign=bottom;" connectable="0" vertex="1" parent="V5x3GfwoTtwcRLhxdQHw-228">
          <mxGeometry x="1" relative="1" as="geometry">
            <mxPoint x="-19.83" y="22" as="offset" />
          </mxGeometry>
        </mxCell>
        <mxCell id="V5x3GfwoTtwcRLhxdQHw-231" value="Mechanism" style="swimlane;fontStyle=0;childLayout=stackLayout;horizontal=1;startSize=26;fillColor=none;horizontalStack=0;resizeParent=1;resizeParentMax=0;resizeLast=0;collapsible=1;marginBottom=0;align=center;" vertex="1" parent="1">
          <mxGeometry x="630" y="510" width="140" height="78" as="geometry" />
        </mxCell>
        <mxCell id="V5x3GfwoTtwcRLhxdQHw-232" value="Kind" style="text;strokeColor=none;fillColor=none;align=left;verticalAlign=top;spacingLeft=4;spacingRight=4;overflow=hidden;rotatable=0;points=[[0,0.5],[1,0.5]];portConstraint=eastwest;" vertex="1" parent="V5x3GfwoTtwcRLhxdQHw-231">
          <mxGeometry y="26" width="140" height="26" as="geometry" />
        </mxCell>
        <mxCell id="V5x3GfwoTtwcRLhxdQHw-234" value="Algorithm" style="text;strokeColor=none;fillColor=none;align=left;verticalAlign=top;spacingLeft=4;spacingRight=4;overflow=hidden;rotatable=0;points=[[0,0.5],[1,0.5]];portConstraint=eastwest;" vertex="1" parent="V5x3GfwoTtwcRLhxdQHw-231">
          <mxGeometry y="52" width="140" height="26" as="geometry" />
        </mxCell>
        <mxCell id="V5x3GfwoTtwcRLhxdQHw-235" value="" style="endArrow=none;html=1;edgeStyle=orthogonalEdgeStyle;strokeColor=#000000;exitX=0.521;exitY=0.981;exitDx=0;exitDy=0;exitPerimeter=0;entryX=0.426;entryY=-0.03;entryDx=0;entryDy=0;entryPerimeter=0;" edge="1" parent="1" source="V5x3GfwoTtwcRLhxdQHw-234" target="V5x3GfwoTtwcRLhxdQHw-217">
          <mxGeometry relative="1" as="geometry">
            <mxPoint x="550" y="651" as="sourcePoint" />
            <mxPoint x="640" y="670" as="targetPoint" />
            <Array as="points">
              <mxPoint x="703" y="640" />
              <mxPoint x="640" y="640" />
            </Array>
          </mxGeometry>
        </mxCell>
        <mxCell id="V5x3GfwoTtwcRLhxdQHw-236" value="many" style="edgeLabel;resizable=0;html=1;align=left;verticalAlign=bottom;" connectable="0" vertex="1" parent="V5x3GfwoTtwcRLhxdQHw-235">
          <mxGeometry x="-1" relative="1" as="geometry">
            <mxPoint x="7.059999999999993" y="26.49000000000001" as="offset" />
          </mxGeometry>
        </mxCell>
        <mxCell id="V5x3GfwoTtwcRLhxdQHw-237" value="one" style="edgeLabel;resizable=0;html=1;align=right;verticalAlign=bottom;" connectable="0" vertex="1" parent="V5x3GfwoTtwcRLhxdQHw-235">
          <mxGeometry x="1" relative="1" as="geometry">
            <mxPoint x="30.36" y="-6.840000000000002" as="offset" />
          </mxGeometry>
        </mxCell>
        <mxCell id="V5x3GfwoTtwcRLhxdQHw-238" value="Area" style="swimlane;fontStyle=0;childLayout=stackLayout;horizontal=1;startSize=26;fillColor=none;horizontalStack=0;resizeParent=1;resizeParentMax=0;resizeLast=0;collapsible=1;marginBottom=0;align=center;" vertex="1" parent="1">
          <mxGeometry x="600" y="840" width="140" height="52" as="geometry" />
        </mxCell>
        <mxCell id="V5x3GfwoTtwcRLhxdQHw-239" value="Type" style="text;strokeColor=none;fillColor=none;align=left;verticalAlign=top;spacingLeft=4;spacingRight=4;overflow=hidden;rotatable=0;points=[[0,0.5],[1,0.5]];portConstraint=eastwest;" vertex="1" parent="V5x3GfwoTtwcRLhxdQHw-238">
          <mxGeometry y="26" width="140" height="26" as="geometry" />
        </mxCell>
        <mxCell id="V5x3GfwoTtwcRLhxdQHw-242" value="" style="endArrow=none;html=1;edgeStyle=orthogonalEdgeStyle;strokeColor=#000000;exitX=0.998;exitY=0.827;exitDx=0;exitDy=0;exitPerimeter=0;entryX=1;entryY=0.385;entryDx=0;entryDy=0;entryPerimeter=0;" edge="1" parent="1" source="V5x3GfwoTtwcRLhxdQHw-232" target="V5x3GfwoTtwcRLhxdQHw-238">
          <mxGeometry relative="1" as="geometry">
            <mxPoint x="803.36" y="590.6260000000001" as="sourcePoint" />
            <mxPoint x="740.0600000000001" y="680.0000000000001" as="targetPoint" />
            <Array as="points">
              <mxPoint x="803" y="558" />
              <mxPoint x="803" y="860" />
            </Array>
          </mxGeometry>
        </mxCell>
        <mxCell id="V5x3GfwoTtwcRLhxdQHw-243" value="many" style="edgeLabel;resizable=0;html=1;align=left;verticalAlign=bottom;" connectable="0" vertex="1" parent="V5x3GfwoTtwcRLhxdQHw-242">
          <mxGeometry x="-1" relative="1" as="geometry">
            <mxPoint x="7.059999999999993" y="-7.499999999999993" as="offset" />
          </mxGeometry>
        </mxCell>
        <mxCell id="V5x3GfwoTtwcRLhxdQHw-244" value="one" style="edgeLabel;resizable=0;html=1;align=right;verticalAlign=bottom;" connectable="0" vertex="1" parent="V5x3GfwoTtwcRLhxdQHw-242">
          <mxGeometry x="1" relative="1" as="geometry">
            <mxPoint x="30.36" y="-6.840000000000002" as="offset" />
          </mxGeometry>
        </mxCell>
      </root>
    </mxGraphModel>
  </diagram>
</mxfile>
